name Walk2.mot
datacolumns 19
datarows 17
range 3.62500000 3.70500000
endheader

                time	   L_ground_force_vx	   L_ground_force_vy	   L_ground_force_vz	   L_ground_force_px	   L_ground_force_py	   L_ground_force_pz	   R_ground_force_vx	   R_ground_force_vy	   R_ground_force_vz	   R_ground_force_px	   R_ground_force_py	   R_ground_force_pz	   L_ground_torque_x	   L_ground_torque_y	   L_ground_torque_z	   R_ground_torque_x	   R_ground_torque_y	   R_ground_torque_z	
          3.62500000	         25.60517247	        975.35835519	         66.75875292	         -0.20887435	          0.00000000	         -0.04507759	          0.00276955	         -0.02361860	         -0.00155671	          0.00000559	          0.00000000	          0.00000232	          0.00000000	         -1.40253403	          0.00000000	          0.00000000	         -0.00042002	          0.00000000	
          3.63000000	         26.64031952	        979.48696699	         67.23874826	         -0.20665151	          0.00000000	         -0.04513340	          0.00148317	         -0.00782520	          0.00066863	          0.00002529	          0.00000000	          0.00000949	          0.00000000	         -1.36671077	          0.00000000	          0.00000000	         -0.00025367	          0.00000000	
          3.63500000	         27.62885644	        983.48696980	         67.65517499	         -0.20439300	          0.00000000	         -0.04517278	         -0.00070570	          0.01776777	          0.00405631	          0.00005288	          0.00000000	          0.00001951	          0.00000000	         -1.32761901	          0.00000000	          0.00000000	          0.00003701	          0.00000000	
          3.64000000	         28.59931752	        987.40108451	         68.00054083	         -0.20210547	          0.00000000	         -0.04519726	         -0.00403194	          0.05548567	          0.00883874	          0.00008940	          0.00000000	          0.00003272	          0.00000000	         -1.28718290	          0.00000000	          0.00000000	          0.00048572	          0.00000000	
          3.64500000	         29.58530657	        991.27532211	         68.26899022	         -0.19979792	          0.00000000	         -0.04520834	         -0.00872157	          0.10745925	          0.01520630	          0.00013531	          0.00000000	          0.00004928	          0.00000000	         -1.24716669	          0.00000000	          0.00000000	          0.00112554	          0.00000000	
          3.65000000	         30.62423720	        995.15779298	         68.45708459	         -0.19748145	          0.00000000	         -0.04520710	         -0.01495887	          0.17525305	          0.02326037	          0.00019023	          0.00000000	          0.00006903	          0.00000000	         -1.20910115	          0.00000000	          0.00000000	          0.00198445	          0.00000000	
          3.65500000	         31.75570606	        999.09488401	         68.56527157	         -0.19516938	          0.00000000	         -0.04519422	         -0.02284033	          0.25935571	          0.03295108	          0.00025239	          0.00000000	          0.00009132	          0.00000000	         -1.17460320	          0.00000000	          0.00000000	          0.00307907	          0.00000000	
          3.66000000	         33.02064811	       1003.13011630	         68.59917951	         -0.19287629	          0.00000000	         -0.04516990	         -0.03231367	          0.35851785	          0.04399877	          0.00031821	          0.00000000	          0.00011482	          0.00000000	         -1.14525897	          0.00000000	          0.00000000	          0.00440626	          0.00000000	
          3.66500000	         34.46028078	       1007.30395296	         68.57045005	         -0.19061712	          0.00000000	         -0.04513442	         -0.04310102	          0.46893396	          0.05580004	          0.00038160	          0.00000000	          0.00013729	          0.00000000	         -1.12196094	          0.00000000	          0.00000000	          0.00593245	          0.00000000	
          3.67000000	         36.11451720	       1011.65065318	         68.49692654	         -0.18840654	          0.00000000	         -0.04508849	         -0.05460703	          0.58328187	          0.06732098	          0.00043338	          0.00000000	          0.00015541	          0.00000000	         -1.10491361	          0.00000000	          0.00000000	          0.00758071	          0.00000000	
          3.67500000	         38.02088158	       1016.19798474	         68.40267808	         -0.18625910	          0.00000000	         -0.04503336	         -0.06581469	          0.68965866	          0.07698394	          0.00046068	          0.00000000	          0.00016449	          0.00000000	         -1.09305678	          0.00000000	          0.00000000	          0.00921607	          0.00000000	
          3.68000000	         40.21374055	       1020.96790169	         68.31714004	         -0.18419006	          0.00000000	         -0.04496962	         -0.07517489	          0.77048618	          0.08255788	          0.00044644	          0.00000000	          0.00015837	          0.00000000	         -1.08381436	          0.00000000	          0.00000000	          0.01062961	          0.00000000	
          3.68500000	         42.72257975	       1025.97481484	         68.27272151	         -0.18221407	          0.00000000	         -0.04489718	         -0.08049982	          0.80150440	          0.08106806	          0.00036917	          0.00000000	          0.00012929	          0.00000000	         -1.07341410	          0.00000000	          0.00000000	          0.01152293	          0.00000000	
          3.69000000	         45.57009190	       1031.22529254	         68.30010178	         -0.18034341	          0.00000000	         -0.04481531	         -0.07887552	          0.75102557	          0.06874690	          0.00020316	          0.00000000	          0.00006801	          0.00000000	         -1.05731674	          0.00000000	          0.00000000	          0.01149485	          0.00000000	
          3.69500000	         48.77042553	       1036.71567913	         68.42140189	         -0.17858810	          0.00000000	         -0.04472283	         -0.06661505	          0.57968738	          0.04105511	         -0.00008078	          0.00000000	         -0.00003595	          0.00000000	         -1.03157739	          0.00000000	          0.00000000	          0.01003343	          0.00000000	
          3.70000000	         52.32823732	       1042.43049585	         68.64224361	         -0.17695601	          0.00000000	         -0.04461750	         -0.03928082	          0.24101435	         -0.00719014	         -0.00051359	          0.00000000	         -0.00019363	          0.00000000	         -0.99444475	          0.00000000	          0.00000000	          0.00651711	          0.00000000	
          3.70500000	         56.23752017	       1048.34377583	         68.94265637	         -0.17545223	          0.00000000	         -0.04449523	          0.00818806	         -0.31682934	         -0.08153608	         -0.00112515	          0.00000000	         -0.00041563	          0.00000000	         -0.94736105	          0.00000000	          0.00000000	          0.00023010	          0.00000000	
